HIERARCHY
ROOT Hips
{
    OFFSET   0.000000   0.000000   0.000000
    CHANNELS 6 Xposition Yposition Zposition Zrotation Xrotation Yrotation
    JOINT Chest
    {
        OFFSET   0.000000   8.007240   0.000000
        CHANNELS 3 Zrotation Xrotation Yrotation
        JOINT Chest2
        {
            OFFSET   0.000000  22.077100   0.000000
            CHANNELS 3 Zrotation Xrotation Yrotation
            JOINT Neck
            {
                OFFSET   0.000000  23.254800   0.000000
                CHANNELS 3 Zrotation Xrotation Yrotation
                JOINT Head
                {
                    OFFSET   0.000000  14.370000   1.956600
                    CHANNELS 3 Zrotation Xrotation Yrotation
                    End Site
                    {
                        OFFSET   0.000000  19.566000   0.000000
                    }
                }
            }
            JOINT LeftCollar
            {
                OFFSET   3.911900  19.017000  -0.467064
                CHANNELS 3 Zrotation Xrotation Yrotation
                JOINT LeftShoulder
                {
                    OFFSET  10.383700   0.000000   0.000000
                    CHANNELS 3 Zrotation Xrotation Yrotation
                    JOINT LeftElbow
                    {
                        OFFSET  26.662100   0.001476   0.000517
                        CHANNELS 3 Zrotation Xrotation Yrotation
                        JOINT LeftWrist
                        {
                            OFFSET  28.869000  -0.000025  -0.000106
                            CHANNELS 3 Zrotation Xrotation Yrotation
                            JOINT LeftFinger0
                            {
                                OFFSET   2.044660  -2.323460   3.252850
                                CHANNELS 3 Zrotation Xrotation Yrotation
                                JOINT LeftFinger01
                                {
                                    OFFSET   3.088130   0.000000   0.000000
                                    CHANNELS 3 Zrotation Xrotation Yrotation
                                    JOINT LeftFinger02
                                    {
                                        OFFSET   2.639460   0.000000   0.000000
                                        CHANNELS 3 Zrotation Xrotation Yrotation
                                        End Site
                                        {
                                            OFFSET   2.582190   0.000000   0.000000
                                        }
                                    }
                                }
                            }
                            JOINT LeftFinger1
                            {
                                OFFSET   8.364480   0.000000   3.252850
                                CHANNELS 3 Zrotation Xrotation Yrotation
                                JOINT LeftFinger11
                                {
                                    OFFSET   4.646930   0.000000   0.000000
                                    CHANNELS 3 Zrotation Xrotation Yrotation
                                    JOINT LeftFinger12
                                    {
                                        OFFSET   2.323460   0.000000   0.000000
                                        CHANNELS 3 Zrotation Xrotation Yrotation
                                        End Site
                                        {
                                            OFFSET   2.273050   0.000000   0.000000
                                        }
                                    }
                                }
                            }
                            JOINT LeftFinger2
                            {
                                OFFSET   8.364490   0.000015   1.078090
                                CHANNELS 3 Zrotation Xrotation Yrotation
                                JOINT LeftFinger21
                                {
                                    OFFSET   5.111620   0.000000   0.000000
                                    CHANNELS 3 Zrotation Xrotation Yrotation
                                    JOINT LeftFinger22
                                    {
                                        OFFSET   2.788160   0.000016   0.000000
                                        CHANNELS 3 Zrotation Xrotation Yrotation
                                        End Site
                                        {
                                            OFFSET   2.727660   0.000000   0.000000
                                        }
                                    }
                                }
                            }
                            JOINT LeftFinger3
                            {
                                OFFSET   7.899780   0.000017  -1.078090
                                CHANNELS 3 Zrotation Xrotation Yrotation
                                JOINT LeftFinger31
                                {
                                    OFFSET   4.646930   0.000000   0.000000
                                    CHANNELS 3 Zrotation Xrotation Yrotation
                                    JOINT LeftFinger32
                                    {
                                        OFFSET   2.323470   0.000000   0.000000
                                        CHANNELS 3 Zrotation Xrotation Yrotation
                                        End Site
                                        {
                                            OFFSET   2.273050   0.000000   0.000000
                                        }
                                    }
                                }
                            }
                            JOINT LeftFinger4
                            {
                                OFFSET   7.435090   0.000000  -3.252850
                                CHANNELS 3 Zrotation Xrotation Yrotation
                                JOINT LeftFinger41
                                {
                                    OFFSET   3.717550   0.000000   0.000000
                                    CHANNELS 3 Zrotation Xrotation Yrotation
                                    JOINT LeftFinger42
                                    {
                                        OFFSET   1.858770   0.000000   0.000000
                                        CHANNELS 3 Zrotation Xrotation Yrotation
                                        End Site
                                        {
                                            OFFSET   1.818440   0.000000   0.000000
                                        }
                                    }
                                }
                            }
                        }
                    }
                }
            }
            JOINT RightCollar
            {
                OFFSET  -3.911900  19.017000  -0.467063
                CHANNELS 3 Zrotation Xrotation Yrotation
                JOINT RightShoulder
                {
                    OFFSET -10.383700   0.000019   0.000000
                    CHANNELS 3 Zrotation Xrotation Yrotation
                    JOINT RightElbow
                    {
                        OFFSET -26.662100   0.001175   0.000102
                        CHANNELS 3 Zrotation Xrotation Yrotation
                        JOINT RightWrist
                        {
                            OFFSET -28.869000   0.000016  -0.000079
                            CHANNELS 3 Zrotation Xrotation Yrotation
                            JOINT RightFinger0
                            {
                                OFFSET  -2.044660  -2.323490   3.252850
                                CHANNELS 3 Zrotation Xrotation Yrotation
                                JOINT RightFinger01
                                {
                                    OFFSET  -3.088140   0.000000   0.000000
                                    CHANNELS 3 Zrotation Xrotation Yrotation
                                    JOINT RightFinger02
                                    {
                                        OFFSET  -2.639460   0.000000   0.000000
                                        CHANNELS 3 Zrotation Xrotation Yrotation
                                        End Site
                                        {
                                            OFFSET  -2.582190   0.000000   0.000000
                                        }
                                    }
                                }
                            }
                            JOINT RightFinger1
                            {
                                OFFSET  -8.364480   0.000000   3.252850
                                CHANNELS 3 Zrotation Xrotation Yrotation
                                JOINT RightFinger11
                                {
                                    OFFSET  -4.646930   0.000000   0.000000
                                    CHANNELS 3 Zrotation Xrotation Yrotation
                                    JOINT RightFinger12
                                    {
                                        OFFSET  -2.323470   0.000000   0.000000
                                        CHANNELS 3 Zrotation Xrotation Yrotation
                                        End Site
                                        {
                                            OFFSET  -2.273050   0.000000   0.000000
                                        }
                                    }
                                }
                            }
                            JOINT RightFinger2
                            {
                                OFFSET  -8.364480   0.000000   1.078090
                                CHANNELS 3 Zrotation Xrotation Yrotation
                                JOINT RightFinger21
                                {
                                    OFFSET  -5.111620   0.000000   0.000000
                                    CHANNELS 3 Zrotation Xrotation Yrotation
                                    JOINT RightFinger22
                                    {
                                        OFFSET  -2.788160   0.000000   0.000000
                                        CHANNELS 3 Zrotation Xrotation Yrotation
                                        End Site
                                        {
                                            OFFSET  -2.727660   0.000000   0.000000
                                        }
                                    }
                                }
                            }
                            JOINT RightFinger3
                            {
                                OFFSET  -7.899780   0.000000  -1.078090
                                CHANNELS 3 Zrotation Xrotation Yrotation
                                JOINT RightFinger31
                                {
                                    OFFSET  -4.646930   0.000000   0.000000
                                    CHANNELS 3 Zrotation Xrotation Yrotation
                                    JOINT RightFinger32
                                    {
                                        OFFSET  -2.323470   0.000000   0.000000
                                        CHANNELS 3 Zrotation Xrotation Yrotation
                                        End Site
                                        {
                                            OFFSET  -2.273050   0.000000   0.000000
                                        }
                                    }
                                }
                            }
                            JOINT RightFinger4
                            {
                                OFFSET  -7.435090   0.000000  -3.252850
                                CHANNELS 3 Zrotation Xrotation Yrotation
                                JOINT RightFinger41
                                {
                                    OFFSET  -3.717550   0.000000   0.000000
                                    CHANNELS 3 Zrotation Xrotation Yrotation
                                    JOINT RightFinger42
                                    {
                                        OFFSET  -1.858770   0.000000   0.000000
                                        CHANNELS 3 Zrotation Xrotation Yrotation
                                        End Site
                                        {
                                            OFFSET  -1.818440   0.000000   0.000000
                                        }
                                    }
                                }
                            }
                        }
                    }
                }
            }
        }
    }
    JOINT LeftHip
    {
        OFFSET   9.783040   0.000000   0.000000
        CHANNELS 3 Zrotation Xrotation Yrotation
        JOINT LeftKnee
        {
            OFFSET   0.000032 -41.789100  -0.002222
            CHANNELS 3 Zrotation Xrotation Yrotation
            JOINT LeftAnkle
            {
                OFFSET   0.000087 -41.133200  -0.000135
                CHANNELS 3 Zrotation Xrotation Yrotation
                JOINT LeftToe
                {
                    OFFSET   0.000000  -6.358960  14.674500
                    CHANNELS 3 Zrotation Xrotation Yrotation
                    End Site
                    {
                        OFFSET   0.000000   0.000000   3.913200
                    }
                }
            }
        }
    }
    JOINT RightHip
    {
        OFFSET  -9.783040   0.000000   0.000000
        CHANNELS 3 Zrotation Xrotation Yrotation
        JOINT RightKnee
        {
            OFFSET   0.000047 -41.789100  -0.000896
            CHANNELS 3 Zrotation Xrotation Yrotation
            JOINT RightAnkle
            {
                OFFSET  -0.000117 -41.133300  -0.000248
                CHANNELS 3 Zrotation Xrotation Yrotation
                JOINT RightToe
                {
                    OFFSET   0.000000  -6.358970  14.674500
                    CHANNELS 3 Zrotation Xrotation Yrotation
                    End Site
                    {
                        OFFSET   0.000000   0.000000   3.913200
                    }
                }
            }
        }
    }
}
MOTION
Frames: 4
Frame Time:   0.016667
 -0.327170  89.486500  -0.842257  -1.274050 -17.575300   7.698890   0.853204   9.738640   1.203340   1.529110  19.492500   2.308220  -2.913730   1.042570   0.053081  -4.791250   2.097670   3.966260 -10.036300  -0.734022  -3.447340 -54.718700  20.548700 -43.060100  20.986200  13.136000 -59.927200  12.241500  34.190200   2.415760  40.878000  34.963900 -76.940500  10.548700   0.051210   0.029400  10.274400   0.028850   0.009591 -11.327400   2.420630 -11.887200  -9.462660  -0.009144   0.017212  -6.623860  -0.007503   0.011215 -13.468200   1.727680  -7.164740 -13.572900  -0.004376   0.013634  -9.039540  -0.002577   0.008787 -18.656200   2.446930  -7.168380 -18.807100  -0.004051   0.016319 -12.525500  -0.004865   0.010065 -23.982300   0.921129  -2.054530 -35.999700  -0.011803   0.023547 -23.975800  -0.013482   0.011282   5.721560  -3.350780  15.191000  48.734400  16.214200  33.404000 -23.431200   5.686240  60.710800 -11.986000  27.782000  18.314600 -48.693600  39.331900  80.246400  -8.186030   0.011723  -0.005167  -9.093010   0.013158  -0.001632  10.108600   2.436880  13.397000   8.503820   0.000929  -0.005771   5.952670  -0.003423  -0.003945   9.841660   0.997675   5.713210   9.889670  -0.003949  -0.010329   6.586520  -0.003441  -0.006627  11.181800  -1.039630  -5.229550  11.225200  -0.002435  -0.007690   7.476000  -0.003321  -0.004558   9.360760  -3.248290 -18.964600  14.849200  -0.007876  -0.009798   9.889540  -0.006319  -0.010180   3.641790  19.911900   3.858080   1.499060   0.001472   5.303460  -2.501120  -1.777780  -0.247624  -0.000000   0.000000   0.000000   3.818840  14.580700  -6.604650   0.650490   8.530030 -11.445000  -2.938200  -5.687520  -4.999180   0.000000   0.000000   0.000000
 -0.313629  89.496500  -0.780247  -1.366560 -17.440600   7.461840   0.865414   9.641050   1.181080   1.559620  19.297300   2.261090  -2.883420   0.957909   0.048348  -4.740740   1.927610   3.965190 -10.021900  -0.792232  -3.372780 -54.820100  20.734100 -42.646300  20.569900  13.249800 -59.196200  12.872800  32.947800   2.347860  40.423600  33.707900 -75.543200   7.784330   0.126057   0.125251   8.892180   0.068319   0.055133 -13.427200   3.102390 -12.582000 -11.264300  -0.012652   0.053861  -7.885010  -0.015542   0.035614 -14.695000   1.952410  -7.181690 -14.830900  -0.005715   0.044588  -9.877350  -0.008784   0.029954 -20.002600   2.642870  -7.122820 -20.199000  -0.007319   0.041822 -13.452500  -0.011548   0.027424 -25.316400   0.866274  -1.760900 -38.037800  -0.034381   0.058465 -25.333100  -0.037167   0.022157   5.851610  -3.378680  15.216500  49.074800  16.502400  33.145000 -23.140300   5.950060  60.213900 -12.408000  27.241000  18.664700 -48.589500  39.066600  79.798300  -7.056530   0.016805  -0.014445  -8.528260   0.016644  -0.006015  11.050300   2.695860  13.466100   9.301540   0.000931  -0.010707   6.511080  -0.003517  -0.007627  11.269700   1.186080   5.884230  11.330000  -0.004060  -0.017183   7.545780  -0.003585  -0.010602  12.460100  -1.023370  -4.668930  12.498200  -0.002465  -0.012891   8.323820  -0.003377  -0.009183  10.507000  -3.514630 -18.325400  16.604800  -0.008999  -0.014675  11.058800  -0.006799  -0.013080   3.639650  19.842500   3.898750   1.475060   0.041017   5.377340  -2.484150  -1.848770  -0.134253   0.000000   0.000000   0.000000   3.833370  14.489600  -6.510770   0.621933   8.494940 -11.425200  -2.926820  -5.684980  -4.887900  -0.000000   0.000000  -0.000000
 -0.298955  89.507000  -0.721379  -1.464270 -17.273100   7.215990   0.881160   9.533070   1.155300   1.598010  19.081300   2.206330  -2.849680   0.863422   0.043057  -4.684590   1.737760   3.964110 -10.017300  -0.868653  -3.313930 -54.979200  20.937400 -42.113200  19.910800  13.323600 -58.285600  13.525700  31.208200   2.298900  39.943700  32.282800 -73.976100   4.237850   0.218281   0.259407   7.118990   0.114753   0.124160 -15.789500   3.821750 -13.003600 -13.294600  -0.018598   0.107691  -9.306230  -0.028102   0.071254 -16.122500   2.145310  -7.184850 -16.298200  -0.008840   0.093167 -10.854600  -0.019439   0.059258 -21.528600   2.752570  -6.796800 -21.755200  -0.014539   0.086912 -14.488900  -0.025318   0.053008 -26.776700   0.689592  -1.274480 -40.273600  -0.068065   0.102898 -26.822200  -0.073062   0.037716   5.995150  -3.416880  15.262100  49.418300  16.863400  32.819700 -22.807000   6.220700  59.612700 -12.918500  26.644700  19.064800 -48.403200  38.782800  79.350700  -5.686460   0.024163  -0.030070  -7.843220   0.019190  -0.013609  12.188800   2.987220  13.500200  10.264800   0.000932  -0.018506   7.185360  -0.003612  -0.013117  12.951100   1.397640   5.995160  13.025200  -0.004171  -0.024578   8.674800  -0.003835  -0.016101  14.005700  -1.007000  -4.102180  14.039000  -0.002498  -0.020164   9.349970  -0.003434  -0.015561  11.839600  -3.815390 -17.651300  18.639900  -0.010553  -0.020416  12.414200  -0.007400  -0.015295   3.640450  19.710800   3.938180   1.452130   0.080553   5.457120  -2.469430  -1.940220  -0.017844  -0.000000   0.000000   0.000000   3.840460  14.367600  -6.427310   0.598951   8.451260 -11.384500  -2.914630  -5.674560  -4.774420  -0.000000   0.000000   0.000000
 -0.283188  89.518500  -0.666795  -1.571940 -17.061700   6.957190   0.903351   9.410980   1.127980   1.649910  18.837200   2.147520  -2.813860   0.762821   0.037607  -4.625040   1.535650   3.956130 -10.025200  -0.964770  -3.294700 -55.284900  21.129400 -41.404500  18.943300  13.334800 -57.174600  14.140200  28.978000   2.409800  39.232100  30.525600 -72.199000  -0.629932   0.266652   0.350014   4.685200   0.135665   0.172555 -18.523300   4.593230 -12.951300 -15.643400  -0.026066   0.142800 -10.950400  -0.040139   0.093246 -17.862000   2.211850  -6.866870 -18.077300  -0.015497   0.132713 -12.039400  -0.031744   0.083147 -23.365300   2.627170  -5.977070 -23.454600  -0.025853   0.144405 -15.620700  -0.044121   0.085852 -28.312200   0.321279  -0.510664 -42.650000  -0.098709   0.137950 -28.404900  -0.103276   0.045581   6.156440  -3.466280  15.320400  49.741600  17.372700  32.444800 -22.437700   6.465360  58.833000 -13.569300  26.117200  19.527700 -47.939100  38.388200  78.826300  -3.939680   0.032599  -0.048228  -6.969840   0.019899  -0.022534  13.554200   3.292650  13.348600  11.410700   0.000930  -0.027106   7.987490  -0.003712  -0.017977  14.787400   1.598850   5.966950  14.872700  -0.004283  -0.030304   9.905210  -0.004107  -0.019799  15.715400  -1.029960  -3.717770  15.746600  -0.002533  -0.025450  10.487200  -0.003498  -0.017947  13.268500  -4.130580 -17.027300  20.819100  -0.012480  -0.026820  13.865500  -0.008159  -0.016029   3.642890  19.575100   3.983580   1.426990   0.069033   5.539220  -2.452840  -2.000510   0.106239  -0.000000   0.000000   0.000000   3.842600  14.201400  -6.361360   0.578004   8.401210 -11.300500  -2.906260  -5.654780  -4.670730  -0.000000   0.000000   0.000000
